<?xml version="1.0" standalone="no"?>
<!DOCTYPE svg PUBLIC "-//W3C//DTD SVG 20010904//EN"
 "http://www.w3.org/TR/2001/REC-SVG-20010904/DTD/svg10.dtd">
<svg version="1.0" xmlns="http://www.w3.org/2000/svg"
 width="244.000000pt" height="244.000000pt" viewBox="0 0 244.000000 244.000000"
 preserveAspectRatio="xMidYMid meet">
<metadata>
Created by potrace 1.14, written by Peter Selinger 2001-2017
</metadata>
<g transform="translate(0.000000,244.000000) scale(0.100000,-0.100000)"
fill="#000000" stroke="none">
<path d="M815 2091 c-178 -6 -192 -7 -221 -29 -64 -48 -69 -66 -72 -287 -3
-170 -6 -202 -20 -212 -11 -9 -67 -13 -196 -13 -173 0 -181 -1 -221 -25 -30
-17 -49 -38 -64 -71 -21 -44 -22 -57 -19 -277 3 -269 10 -293 88 -336 41 -23
53 -24 244 -27 173 -3 203 -6 213 -20 8 -11 12 -67 12 -175 0 -173 9 -210 59
-249 44 -35 95 -42 316 -38 240 3 256 8 304 80 26 41 27 45 29 207 2 195 -6
220 -68 221 -14 0 -35 -10 -47 -23 -21 -22 -22 -33 -22 -180 0 -144 -1 -157
-19 -167 -12 -6 -95 -10 -201 -10 -106 0 -189 4 -201 10 -18 10 -19 23 -19
173 0 136 -3 168 -19 202 -42 91 -81 104 -328 105 -136 0 -194 3 -199 12 -8
13 -6 437 2 450 3 4 88 8 190 8 192 0 217 5 268 49 45 40 50 67 56 281 l5 205
230 0 230 0 5 -142 c4 -116 8 -146 22 -163 26 -30 72 -26 98 7 20 26 22 37 18
168 -4 163 -17 201 -81 242 -47 30 -95 33 -372 24z"/>
<path d="M2310 1656 c0 -33 -2 -35 -37 -38 -33 -3 -38 -7 -41 -30 -3 -27 -1
-28 37 -28 40 0 41 -1 41 -36 0 -33 2 -35 28 -32 22 2 28 8 30 36 3 29 6 32
38 32 33 0 35 2 32 28 -2 22 -8 28 -35 30 -28 3 -32 7 -35 35 -2 27 -8 33 -30
35 -26 3 -28 1 -28 -32z"/>
<path d="M1094 1473 c-45 -205 -107 -336 -208 -438 -39 -39 -82 -78 -95 -86
-37 -23 -18 -39 47 -39 67 1 96 20 166 114 43 57 45 59 97 63 30 2 69 8 87 13
32 8 33 7 86 -64 80 -109 107 -128 174 -124 30 2 57 8 59 14 2 7 -19 28 -46
48 -28 21 -73 67 -100 104 l-50 66 54 58 c29 31 56 67 60 78 9 28 18 25 39
-14 10 -19 35 -50 56 -71 l37 -36 30 25 c16 14 41 45 54 70 13 26 26 46 30 46
3 0 13 -22 23 -49 9 -27 40 -89 68 -138 106 -185 121 -195 328 -201 161 -5
175 0 168 55 -3 28 -3 28 -93 33 l-90 5 0 200 0 200 80 5 80 5 3 43 3 42 -206
0 -206 0 3 -42 3 -43 70 -5 70 -5 3 -197 c1 -130 -1 -198 -8 -198 -21 0 -87
71 -126 136 -51 86 -87 177 -110 277 l-18 77 -42 0 -41 0 -12 -57 c-13 -69
-49 -145 -65 -140 -20 7 -47 64 -60 129 l-13 63 -44 0 -44 0 -7 -48 c-9 -62
-48 -144 -88 -182 -26 -25 -32 -27 -40 -15 -9 14 -48 136 -67 210 -8 32 -12
35 -50 38 -39 3 -43 1 -49 -25z m74 -285 c-7 -4 -25 -8 -40 -8 l-27 0 21 62
21 62 19 -54 c14 -42 15 -55 6 -62z"/>
</g>
</svg>
